<?xml version="1.0"?><svg version="1.2" baseProfile="tiny-ps" viewBox="0 0 300 300" xmlns="http://www.w3.org/2000/svg" xmlns:xlink="http://www.w3.org/1999/xlink"><title>ALLEN-ALLIE</title><g><g fill="#ecc979" transform="matrix(.1 0 0 -.1 0 300)"><path d="M0 1500V0h3000v3000H0V1500z"/></g><g fill="#d7ad5e" transform="matrix(.1 0 0 -.1 0 300)"><path d="M0 1500V0h3000v3000H0V1500zm1636 1338c71-67 183-175 249-239l119-118-18-20-18-20 7-10 6-11h-42l7-12c5-10-55 42-96 82-3 3-68 61-145 129-77 69-154 138-171 154l-32 29-298-271c-452-409-460-416-447-401l12 13-10 19-11 20 28-4 27-3 11 18 11 18-15 9c-8 5-11 10-6 10h9l-16 18-17 18 293 285c344 336 420 408 428 409 3 0 64-55 135-122zm-172-505c0-13-1-39-2-58l-2-35h-110v115h115l-1-22zm172 17h24v-110h-120v53c0 30 3 57 7 61l8 8 29-6c16-3 39-6 52-6zm-891-139c-3-6-11-11-17-11h-10l12 15c14 17 26 13 15-4zm713-93-3-53-52-3-53-3v111h111l-3-52zm200 7 3-40-45-14-46-13-15 6-15 5v102l58-3 57-3 3-40zm-938-28c0-2-15-16-32-33l-33-29 29 33c28 30 36 37 36 29zm347-95c6-15 77-164 158-332 184-383 208-433 262-550 25-52 50-104 55-115l10-20-10 10c-6 6-60 109-121 230l-111 220v-35h-50v20h-46l-22-20c-12-12-22-25-22-29 0-5-9-11-20-14l-20-5 5 8c3 5 1 10-4 12-5 1-41 70-80 151l-70 149-9-6c-5-3-33-60-61-126-29-66-67-154-86-195l-35-75h-10c-5 0-10-5-10-11v-10l10 6 10 6-17-35-17-36-19 30c-20 32-25 34-46 21l-13-9 7-23c4-13 14-32 23-41l15-18 8 6c13 7 11-7-4-34l-13-23-27 31c-15 16-32 30-37 30-11 0-20-35-17-70l2-25h-18c-22 0-37-22-37-55v-25l-20-13c-11-7-20-11-20-9s39 89 86 193 95 209 106 234 38 83 59 128c21 46 39 85 39 87s21 47 46 102c26 54 64 139 86 188 22 50 46 100 54 112l14 22 13-5c7-2 18-17 24-32zm938-15c10-23 45-98 78-167 109-230 337-733 334-737-2-2-19 29-37 69-29 64-112 239-283 601l-50 108-10-10-10-10 11-26c18-39 15-44-30-65-24-11-40-20-36-20s-4-11-17-25l-25-24v-18l-1-18-10 18c-13 22-26 22-34-3l-6-19-25 11c-13 6-24 15-24 20v9l-10-6-11-7 9-11 9-12-8-25c-4-14-7-20-8-13l-1 11-19-5-19-5-6 10-6 11 22 45 22 45 9-6 10-6-7 12-8 12 31 62c16 35 46 99 66 142 19 43 40 84 46 91l10 13 13-5c7-3 21-24 31-47zm-32-407c-7-26-9-25-22 10l-10 30 19-10 18-10-5-20zm-218-3c0-32-7-41-26-35l-10 3 16 33c9 17 17 32 18 32s2-15 2-33zm86-14c-12-20-14-14-5 12 4 9 9 14 11 11 3-2 0-13-6-23zm-161-128c-24-46-46-83-48-81-1 2 16 42 40 89 23 48 44 84 47 82 2-3-15-43-39-90zm128 60c-6-14-13-23-15-21-5 5 15 46 22 46 3 0-1-11-7-25zm-47-102c-12-20-14-14-5 12 4 9 9 14 11 11 3-2 0-13-6-23zm-160-122c-17-34-34-61-36-61-3 0 4 18 15 40 11 23 25 52 31 67 5 14 12 23 15 20s-9-32-25-66zm-808-218c-7-2-19-2-25 0l-13 5h50l-12-5zm1666-58c0-5-6 1-14 15s-14 30-14 35c0 6 6-1 14-15s14-29 14-35zM743 983c-7-2-19-2-25 0l-13 5h50l-12-5zm300 0c-7-2-19-2-25 0l-13 5h50l-12-5zm1435-28c-3-3-9 2-12 12l-7 18 12-12c7-7 10-15 7-18zM526 927c-17-42-45-94-46-86 0 10 51 119 56 119 2 0-2-15-10-33zm118 18c-4-8-11-15-16-15h-10l12 15c7 8 14 15 16 15s1-7-2-15zm899-35c37-27 67-55 67-61v-12l-44 41c-24 22-58 48-75 56-30 16-39 26-23 26 4 0 37-23 75-50zm976-45c0-5-8 6-19 25s-19 40-19 45c0 6 8-6 19-25s19-39 19-45zm-794-165c75-115 77-120 72-120-3 0-32 42-66 93-33 50-70 106-83 122l-22 30 19-15c10-8 46-58 80-110zM441 744c-16-33-30-56-31-52 0 11 53 118 58 114 2-2-10-30-27-62zm2129 11v-10l-10 15c-5 8-10 20-10 25v10l10-15c5-8 10-19 10-25zm59-130c0-5-8 6-19 25s-19 40-19 45c0 6 8-6 19-25s19-39 19-45zM374 596c-21-42-39-74-41-72s13 38 34 79c20 42 39 75 41 73 1-2-14-38-34-80zm899 39c-3-9-8-14-10-11-3 3-2 9 2 15 9 16 15 13 8-4zm-28-55c-9-16-18-30-21-30-2 0 2 14 11 30 9 17 18 30 21 30 2 0-2-13-11-30zm1425-45v-10l-10 15c-5 8-10 20-10 25v10l10-15c5-8 10-19 10-25zm-1459-18-12-12 7 18c3 10 9 15 12 12s0-11-7-18zm649-19c19-24 26-37 17-29-19 15-61 71-54 71 2 0 19-19 37-42zm-1537-3c-3-9-8-14-10-11-3 3-2 9 2 15 9 16 15 13 8-4zm1632-105c33-33 57-60 54-60-2 0-31 27-64 60s-57 60-54 60c2 0 31-27 64-60zm815-15c13-14 21-25 18-25-2 0-15 11-28 25s-21 25-18 25c2 0 15-11 28-25zM77 294c-3-3-12-4-19-1l-13 5 19 1c11 1 17-2 13-5zm880 0c-3-3-12-4-19-1l-13 5 19 1c11 1 17-2 13-5zm2006-1c-7-2-19-2-25 0l-13 5h50l-12-5zM1796 1683l-7-18 12 12c7 7 10 15 7 18s-9-2-12-12z"/></g><g fill="#b78c46" transform="matrix(.1 0 0 -.1 0 300)"><path d="M0 1500V0h3000v3000H0V1500zm1612 1363c217-203 919-888 829-808-25 22-48 43-51 46-14 14-56 39-67 39h-13v-54l53-55 52-55-68 59-68 58 13 10 13 9-17-6-17-5-188 172c-103 95-258 235-343 311-85 77-173 157-196 178l-40 38-170-152c-93-84-333-303-534-487l-365-334-6-106c-4-58-10-205-15-326s-10-202-11-180c-20 341-25 418-29 463l-6 52H222l111 107c151 145 379 367 627 608 411 401 530 515 542 515 4 0 53-44 110-97zm-142-563v-60h-120v120h120v-60zm190 0v-60h-120v120h120v-60zm-192-182 3-58h-121v121l58-3 57-3 3-57zm190 0 3-58h-121v53c0 30 3 57 7 61s30 6 58 4l50-3 3-57zm-541-215c36-76 90-190 120-253 31-63 75-155 98-205 24-49 80-166 125-260 45-93 86-181 91-194l10-24-16 13c-9 8-23 26-31 42l-15 28h-20c-12 0-67 14-124 31l-103 32-105 216c-58 119-120 247-138 284l-32 69-10-18c-20-35-267-597-267-606v-10l23 6c12 4 76 9 142 12l120 6 120-16c154-20 261-48 354-93l74-35 71-72 71-71 55-89c30-49 87-132 127-186l72-97 58-53c32-29 82-69 111-88 54-36 69-52 30-31-53 28-172 125-223 182-30 34-93 119-139 188l-85 126-20 6-21 5v-18l-25 6-25 6-21-26c-11-14-26-26-34-26-7 0-15-5-17-11l-4-11-42 56c-89 117-181 188-292 224l-65 21-95 12-95 11-105-5c-58-4-118-9-135-13l-30-6-77-176c-43-97-94-216-113-264l-35-88v-87l18-16 18-17 65-14 64-14H315c-154 0-271 2-260 5 11 2 44 11 72 19l53 15 34 30c50 43 88 108 173 291 150 325 511 1116 563 1233 53 119 75 155 92 155 5 0 39-62 75-137zm920 20c30-65 68-145 83-178s58-125 95-205 145-316 240-525c240-528 241-530 281-591l36-54 42-25c23-14 69-31 101-39l60-15-67 2-68 1 12 7 11 7-23 7c-13 4-43 26-67 48l-44 40-34 61c-18 34-58 115-88 181-92 205-161 352-233 505l-45 95-25 12-25 12-6-15-5-14 11-14 11-13-13-11-13-12-23 5-22 4-5-14c-3-7-1-29 4-48l10-36-14 6c-18 7-18 8 6-57 43-119 25-84-180 348l-134 282-8-8c-4-4-66-133-139-287-72-154-135-284-140-290l-9-9v30l-30 22-30 23v17c0 9 27 73 60 140 33 68 60 125 60 127 0 1 38 81 84 176 83 174 113 239 167 357l28 62h32l56-117zm-272-965c33-6 125-14 205-17 154-8 154-12 0-13h-95l39-7 39-6-16-14-17-13 6-9 5-9h-14c-8 0-28 3-45 6l-31 6 15 24 16 23-27 7c-32 8-40 1-26-24 6-12 11-26 11-33v-12l-52 7c-69 9-84 19-107 67l-20 41 27-7c15-4 54-12 87-17zm510-35c14-31 23-58 21-60-3-4-56 103-56 113 0 16 14-5 35-53zm-272-60c-7-2-19-2-25 0l-13 5h50l-12-5zm60 0c-7-2-21-2-30 0l-18 5h60l-12-5zm344-239c-4-4-95 188-103 216-2 8 21-36 51-99 31-62 54-115 52-117zm-1059 31c17-15 32-23 32-19s2 5 5 2c3-2-10-36-29-75-36-74-66-154-66-178 0-8 10-26 23-40l23-27 59-13 60-13H915l50 13c72 17 107 38 156 93l44 49 70 136 70 136 5-18c3-10 20-31 38-46zm208-23c2-28 0-28-21 4l-17 26 19-4 18-3 1-23zm868-38 6-15-10 6c-6 3-10 10-10 16 0 14 7 11 14-7zm-834-24c12-16 19-30 16-30-2 0-14 14-26 30-12 17-19 30-16 30 2 0 14-13 26-30zm65-90c10-11 16-20 13-20s-13 9-23 20-16 20-13 20 13-9 23-20zm70-80c27-27 47-50 44-50s-27 23-54 50c-27 28-47 50-44 50s27-22 54-50zm762-17-5-18v70l5-17c2-10 2-26 0-35zm-597-120c0-7-89 59-103 76-7 8 14-5 46-28 31-24 57-45 57-48zm497 31c-3-3-12-4-19-1l-13 5 19 1c11 1 17-2 13-5zm-462-52c-3-3-11 0-18 7l-12 12 18-7c10-3 15-9 12-12zm-331 563-11-23 8-14 9-13v46l9-6 10-5 5 9 6 9-13 10-12 10-11-23zm194 78c6-2 18-2 25 0l12 5h-50l13-5z"/></g><g fill="#7c6538" transform="matrix(.1 0 0 -.1 0 300)"><path d="M0 1500V0h3000v3000H0V1500zm1589 1388c190-181 318-304 616-592 472-457 575-558 575-562 0-2-33-4-73-4h-73l-12-227c-7-126-13-250-13-278l-1-50-8 35c-4 19-11 160-15 314-3 153-9 284-12 291-2 8-71 74-151 147-81 73-250 227-377 343-399 365-536 486-545 483-16-5-252-218-776-700l-291-267-7-203c-3-112-9-270-13-353l-8-150-6 121c-4 67-12 205-19 307l-13 186-73 3-73 3 187 179c103 99 331 320 507 491 519 503 573 555 586 555 7 0 47-32 88-72zm-119-588v-60h-118l-4 48c-3 26-3 53 0 60l4 12h118v-60zm190 0v-60h-118l-6 23c-8 30-8 82 1 90 3 4 33 7 65 7h58v-60zm-190-180v-60h-119l-6 20-7 21 7 39 7 40h118v-60zm190 0v-60h-118l-6 23c-3 12-3 39 1 60l6 37h117v-60zm-518-267c136-283 376-788 415-873l34-75-21 25c-11 14-20 28-20 33 0 4-8 7-17 7-10 0-31 9-48 20-16 11-39 20-50 20s-35 9-53 20l-32 20h-71l-88 183c-49 100-116 240-150 311l-61 130-9-10c-7-7-208-453-257-569l-12-30h403l90-18c115-23 203-51 276-87l57-29 63-58 63-58 91-140c147-223 228-315 355-402 99-67 222-114 345-132l60-9-132-1-132-1-69 15c-90 18-189 58-276 109l-69 41-82 77-82 77-109 153c-123 174-185 244-255 289l-49 31-74 24-74 23-110 12-110 12-108-12c-60-7-112-15-116-19-8-9-147-325-192-438l-36-91v-73l19-19 20-20 38-6c21-4 49-10 63-15l25-8H35l35 10c19 5 55 17 80 25l45 16 40 41 40 41 51 105c45 92 599 1298 668 1453l25 57h32l91-187zm845 175c12-17 266-564 495-1067 99-218 198-431 220-474l40-77 46-40 45-40 41-10c23-6 55-14 71-19l30-9h-640l55 14 55 15 19 22 18 22-4 45-5 46-55 124c-57 128-269 583-422 905-47 99-89 181-93 182-4 2-35-55-68-125-32-70-99-210-147-310l-88-184-35 46-34 45 13 38c8 21 84 184 169 363s172 364 195 413l41 87h14c8 0 19-6 24-12zM1815 955l100-15h284l22-31 21-31-11-11-11-11-183 1-182 1-100 16-100 17-22 21-23 21v22c0 11-5 26-11 32l-12 12 64-15c35-8 109-21 164-29zm-415-288c0-5-23-60-50-123l-51-113-1-36-1-36 19-19 19-20 54-10c30-6 57-12 59-15 3-3-116-5-264-4l-269 1 25 8c14 4 45 13 69 20l44 12 51 51 51 52 64 125c35 69 73 140 84 158l20 34 38-38c22-21 39-42 39-47z"/></g><g fill="#3f341d" transform="matrix(.1 0 0 -.1 0 300)"><path d="M0 1500V0h3000v3000H0V1500zm1554 1423c89-81 198-185 806-773 162-157 326-315 365-352l70-68-62-1c-35-1-68-2-75-3l-12-1-7-35c-7-32-28-430-30-545l-1-50-7 26c-5 14-12 144-16 290-4 145-10 298-13 340l-7 77-250 227c-567 516-752 684-783 710l-32 27-208-188c-114-103-256-233-317-289-60-56-204-188-320-294l-210-192-6-37c-4-20-9-140-13-267-3-126-10-282-13-345l-7-115-7 115c-4 63-13 211-20 328l-13 212H220v9c0 4 107 111 238 237 130 125 383 370 562 544 437 423 474 460 479 460 2 0 27-21 55-47zm-84-623v-60h-130v120h130v-60zm190 0v-60h-130v120h130v-60zm-192-182-3-63h-120l-3 63-3 62h132l-3-62zm192-1v-64l-47-1c-27 0-56 1-65 4l-18 5v119h130v-63zm-562-164c22-49 124-263 227-478 235-491 265-554 265-565 0-4-29 11-66 35l-65 43-90 29-90 28-66 135c-36 74-100 207-142 295s-81 168-87 179l-11 18-123-278c-67-154-128-290-135-304l-13-25h423l85-18c47-9 120-29 163-43l79-26 72-48 72-49 40-48c23-26 85-115 139-197l98-149 71-75c80-84 160-144 255-192l64-32 95-24c52-13 111-24 131-25l36-1-45-10-45-9-110 5-110 5-80 21c-156 40-295 121-418 243l-72 72-100 144-100 144-61 62-60 62-65 31c-35 18-93 40-129 49l-65 18H681l-15-15c-19-19-199-428-220-501-9-29-16-61-16-71v-19l24-24 23-23 49-7c27-4 56-11 64-16l15-8-290-1H25l15 10c8 5 24 10 36 10 11 0 41 7 66 16l46 15 37 37c20 20 52 64 71 98 28 50 587 1262 679 1474 35 79 43 90 65 90h17l41-87zm1030-215c77-167 189-409 247-538 306-673 351-765 399-818 29-32 85-60 138-68 23-4 50-10 58-15l15-8h-650l15 8c8 5 32 11 52 15l37 7 21 26c25 32 25 49 1 121-25 72-539 1183-557 1201-3 3-72-136-150-305-13-28-55-117-93-198l-70-146h-9c-6 0-22 21-37 47l-26 47 6 25c4 14 72 162 152 330 80 169 170 360 200 426 62 135 68 145 93 145h17l141-302zm-358-775 95-16 183-1 184-1 14-34 15-34-10-10-9-9-138-5-139-6-110 12c-60 7-140 19-177 27l-66 15-17 42c-10 23-19 47-22 54l-5 12 54-15c29-8 96-22 148-31zm-350-266c0-4-25-62-55-128-60-129-71-165-61-204l7-26 34-15c19-8 48-14 64-14h30l6-10 6-10h-270c-149 0-271 2-271 4s24 9 52 16l53 11 41 24 42 25 35 47c19 27 67 111 107 188s79 150 87 163l14 23 39-43c22-23 40-46 40-51z"/></g><g fill="#040301" transform="matrix(.1 0 0 -.1 0 300)"><path d="M0 1500V0h3000v3000H0V1500zm1603 1383c187-177 306-292 487-468 102-99 246-238 321-310 265-256 389-377 389-381 0-2-36-4-79-4h-79l-6-127c-4-71-11-192-16-270-6-78-10-174-10-212v-71h-16l-12 348c-7 191-12 366-12 388v41l-321 294c-177 161-327 298-333 304-87 83-407 365-414 365-9 0-221-188-472-419-186-171-208-192-350-321-74-68-158-145-187-172l-52-49-12-357c-6-196-14-375-18-397l-7-40-7 130c-12 208-27 456-33 513l-5 52H210v9c0 5 21 28 48 51 26 24 99 93 162 154s187 181 275 266 243 235 345 335c283 277 451 435 461 435 5 0 51-39 102-87zm-128-583v-65l-67-3-68-3v64c0 35 3 67 7 71l7 7 61-3 60-3v-65zm190 0v-65l-67-3-68-3v64c0 35 3 67 7 71l7 7 61-3 60-3v-65zm-187-182-3-63-67-3-68-3v131h141l-3-62zm192-3v-65h-140v130h140v-65zm-570-159c21-44 95-200 165-346 69-146 152-318 183-384l56-118 15 33c9 19 105 222 213 452 109 230 198 423 198 427 0 5 8 14 19 19l18 10 16-12 16-12 112-240c119-256 158-340 194-420 12-27 34-76 49-107 34-75 53-117 201-444 155-342 167-366 213-416l37-41 43-19c23-11 61-22 85-26l42-8-2-9-3-10-315-3-315-2v27l43 7c23 4 53 14 66 23l24 15-6 57-5 56-65 145c-35 80-77 170-92 201l-28 56-36-8-36-9-165 1h-165l-95 13c-113 17-151 25-167 39l-13 9v-23l-12 7c-7 4 12-20 44-54l56-61 71-113c185-297 346-434 588-499 40-10 92-19 115-20 24 0 52-4 63-8l20-8-59-8-60-8-120 6-121 6-85 27c-104 32-163 61-257 126l-73 50-67 72-68 71-90 130c-50 71-118 159-152 196l-63 66-57 30c-73 39-137 59-236 74l-78 12-127-6c-70-3-137-9-150-14l-23-9-90-204c-50-113-102-239-116-280l-24-75 10-28 11-27 27-11c16-6 50-13 76-16l48-6-4-11-4-11-281-3-282-2v30h23c13 0 47 7 75 15l52 16 35 31 35 30 35 63c19 34 67 131 106 216s89 192 110 237c21 46 39 85 39 87s25 55 55 120c30 64 55 118 55 119 0 2 21 48 46 102 56 121 51 110 196 428 65 143 123 263 130 267 6 4 18 5 25 2l14-6 39-81zm293-1172c18-20 35-42 39-49l7-11-65-144c-36-79-68-158-71-175l-5-30 19-24 20-24 57-11 57-12 2-9 2-10-273-3-274-2 4 12 4 12 60 13 60 14 37 30c52 43 101 119 187 289 69 138 87 170 97 170 2 0 18-16 36-36zm-432 854c-7-19-97-222-191-433-44-99-60-138-58-140 2-1 41 2 88 7l85 9 110-6c61-4 142-13 180-21 39-8 77-14 86-14h17l-60 123c-89 180-197 406-219 455-21 48-26 51-38 20zm874-113c-37-77-84-176-105-220s-61-129-89-189-50-110-49-111c2-1 50-12 108-25l105-23 217-4 217-3-18 43c-24 55-297 631-310 654l-10 18-66-140zm-318-443c3-12 9-25 14-28l9-5v8c0 5-7 18-15 29l-14 19 6-23zm24-47c0-5 8-26 19-45s19-30 19-25c0 6-8 26-19 45s-19 31-19 25z"/></g></g></svg>